<?xml version="1.0" standalone="no"?>
<!DOCTYPE svg PUBLIC "-//W3C//DTD SVG 20010904//EN"
 "http://www.w3.org/TR/2001/REC-SVG-20010904/DTD/svg10.dtd">
<svg version="1.0" xmlns="http://www.w3.org/2000/svg"
 width="96.000000pt" height="96.000000pt" viewBox="0 0 96.000000 96.000000"
 preserveAspectRatio="xMidYMid meet">
<metadata>
Created by potrace 1.14, written by Peter Selinger 2001-2017
</metadata>
<g transform="translate(0.000000,96.000000) scale(0.100000,-0.100000)"
fill="#000000" stroke="none">
<path d="M464 882 c-11 -7 -109 -167 -120 -196 -4 -9 0 -24 9 -34 15 -16 12
-24 -38 -102 -60 -92 -60 -93 -45 -120 8 -15 -1 -33 -42 -95 -71 -103 -67
-109 80 -113 l111 -3 3 -67 3 -67 55 0 55 0 3 67 3 67 111 3 c147 4 150 9 79
116 -46 70 -51 83 -40 100 11 17 5 31 -44 108 -49 78 -54 91 -41 105 8 8 14
19 14 24 0 18 -123 215 -134 215 -6 0 -16 -4 -22 -8z"/>
</g>
</svg>
